# xmcd
#
# Track frame offsets:
#	150
#	18407
#	48779
#	63655
#	76013
#	94945
#	108212
#	125235
#	150303
#	177028
#	208183
#	229893
#	245738
#	257388
#	272796
#
# Disc length: 4677 seconds
#
# Revision: 0
# Processed by: cddbd v1.5.1PL2 Copyright (c) Steve Scherf et al.
# Submitted via: dBpowerAMP V4.0
#
DISCID=c412430f
DTITLE=Various Artist - Treasure Box/CD 3
DYEAR=2006
DGENRE=Blues
TTITLE0=Robert "Wolfman" Belfour:Treat Me Mean
TTITLE1=Cootie Stark:Black Gal
TTITLE2=Pat Sky:Minimum Wage Blues
TTITLE3=Samuel Turner Stevens:Cluck Old Hen
TTITLE4=Cool John Ferguson:Patterson Avenue
TTITLE5=Abe Reid - Ain't Gonna Let    No Woman
TTITLE6=Carl Rutherford and Cootie Stark:Precious Memories
TTITLE7=Guitar Gabriel:We're Living in Our Last Days
TTITLE8=W.C. Minger JV:On Beyond Zero
TTITLE9=Neal Puttman:Apple Pie
TTITLE10=John Dee Holeman:Hand Me Down My Walking Cane
TTITLE11=Drink Small and Cootie Stark:Drinkin' the Wine
TTITLE12=Sister Cora Fluker:Pray for Me
TTITLE13=Macavine Hayes:The Way You Do
TTITLE14=Paul Duffy:Apple Pickin' Time
EXTD=Music Maker\nRelief Foundation\n
EXTT0=
EXTT1=
EXTT2=
EXTT3=
EXTT4=
EXTT5=
EXTT6=
EXTT7=
EXTT8=
EXTT9=
EXTT10=
EXTT11=
EXTT12=
EXTT13=
EXTT14=
PLAYORDER=
